<mxfile host="65bd71144e">
    <diagram id="uPn-K2xndm1FkFnXiYEj" name="Page-1">
        <mxGraphModel dx="1264" dy="1015" grid="1" gridSize="10" guides="1" tooltips="1" connect="1" arrows="1" fold="1" page="1" pageScale="1" pageWidth="850" pageHeight="1100" math="0" shadow="0">
            <root>
                <mxCell id="0"/>
                <mxCell id="1" parent="0"/>
                <mxCell id="10" style="edgeStyle=none;html=1;exitX=1;exitY=0.5;exitDx=0;exitDy=0;entryX=0;entryY=0.5;entryDx=0;entryDy=0;endArrow=open;endFill=0;endSize=15;" parent="1" source="2" target="3" edge="1">
                    <mxGeometry relative="1" as="geometry"/>
                </mxCell>
                <mxCell id="2" value="Source &lt;br style=&quot;font-size: 19px;&quot;&gt;Program" style="rounded=0;whiteSpace=wrap;html=1;fontSize=19;fillColor=#0050ef;fontColor=#ffffff;strokeColor=#000000;" parent="1" vertex="1">
                    <mxGeometry x="80" y="40" width="120" height="60" as="geometry"/>
                </mxCell>
                <mxCell id="8" style="edgeStyle=none;html=1;exitX=0.5;exitY=1;exitDx=0;exitDy=0;entryX=0.5;entryY=0;entryDx=0;entryDy=0;entryPerimeter=0;endArrow=open;endFill=0;endSize=15;" parent="1" source="3" target="7" edge="1">
                    <mxGeometry relative="1" as="geometry"/>
                </mxCell>
                <mxCell id="9" style="edgeStyle=none;html=1;exitX=1;exitY=0.5;exitDx=0;exitDy=0;entryX=0;entryY=0.5;entryDx=0;entryDy=0;endArrow=open;endFill=0;endSize=15;" parent="1" source="3" target="5" edge="1">
                    <mxGeometry relative="1" as="geometry"/>
                </mxCell>
                <mxCell id="3" value="" style="triangle;whiteSpace=wrap;html=1;fillColor=#008a00;fontColor=#ffffff;gradientDirection=west;gradientColor=#0050EF;strokeColor=#000000;" parent="1" vertex="1">
                    <mxGeometry x="285" y="25" width="115" height="90" as="geometry"/>
                </mxCell>
                <mxCell id="4" value="Compiler" style="text;html=1;strokeColor=none;align=center;verticalAlign=middle;whiteSpace=wrap;rounded=0;fontSize=19;fontColor=#FFFFFF;" parent="1" vertex="1">
                    <mxGeometry x="285" y="60" width="75" height="20" as="geometry"/>
                </mxCell>
                <mxCell id="5" value="Target&lt;br style=&quot;font-size: 19px;&quot;&gt;Program" style="rounded=0;whiteSpace=wrap;html=1;fontSize=19;fillColor=#008a00;fontColor=#ffffff;strokeColor=#000000;" parent="1" vertex="1">
                    <mxGeometry x="450" y="40" width="120" height="60" as="geometry"/>
                </mxCell>
                <mxCell id="7" value="Error/Warning&lt;br style=&quot;font-size: 14px;&quot;&gt;Messages" style="whiteSpace=wrap;html=1;shape=mxgraph.basic.octagon2;align=center;verticalAlign=middle;dx=7.5;fontSize=14;fillColor=#e51400;fontColor=#ffffff;strokeColor=#000000;" parent="1" vertex="1">
                    <mxGeometry x="293.75" y="140" width="97.5" height="60" as="geometry"/>
                </mxCell>
                <mxCell id="11" value="C, C++, Haskell, Java, Rust" style="text;html=1;strokeColor=none;fillColor=none;align=center;verticalAlign=middle;whiteSpace=wrap;rounded=0;fontSize=14;" parent="1" vertex="1">
                    <mxGeometry x="52.5" y="115" width="175" height="20" as="geometry"/>
                </mxCell>
                <mxCell id="14" value="Assembly (Arm, x86, MIPS), java bytecode, cmm other high level languages" style="text;html=1;strokeColor=none;fillColor=none;align=center;verticalAlign=middle;whiteSpace=wrap;rounded=0;fontSize=14;" parent="1" vertex="1">
                    <mxGeometry x="416.25" y="115" width="187.5" height="50" as="geometry"/>
                </mxCell>
            </root>
        </mxGraphModel>
    </diagram>
</mxfile>